<svg xmlns="http://www.w3.org/2000/svg" version="1.1" xmlns:xlink="http://www.w3.org/1999/xlink" xmlns:svgjs="http://svgjs.com/svgjs" width="1920" height="1080" preserveAspectRatio="none" viewBox="0 0 1920 1080"><g mask="url(&quot;#SvgjsMask1108&quot;)" fill="none"><path d="M2048 1080L0 1080 L0 639.96Q-65.26 478.7, 96 413.44Q251.04 472.48, 192 627.52Q157.18 496.7, 288 461.89Q404.66 418.55, 448 535.21Q498.6 425.81, 608 476.41Q661.06 433.47, 704 486.53Q751.78 374.31, 864 422.09Q928.35 390.44, 960 454.79Q1048.86 447.64, 1056 536.5Q1184.09 568.59, 1152 696.68Q1104.01 488.69, 1312 440.71Q1379.38 348.08, 1472 415.46Q1558.11 341.57, 1632 427.68Q1709.74 409.42, 1728 487.16Q1908.94 508.11, 1888 689.05Q1873.59 514.64, 2048 500.23z" fill="rgba(83, 172, 154, 1)"></path><path d="M2016 1080L0 1080 L0 802.39Q82.26 724.65, 160 806.91Q293.04 779.95, 320 912.99Q339.53 836.52, 416 856.05Q390.16 734.21, 512 708.37Q563.32 599.69, 672 651.01Q712.57 595.58, 768 636.15Q842.7 614.85, 864 689.55Q936.4 601.95, 1024 674.35Q1152.15 642.5, 1184 770.65Q1210.48 637.13, 1344 663.61Q1381.05 604.65, 1440 641.7Q1505.59 611.29, 1536 676.88Q1662.76 707.64, 1632 834.41Q1630.75 737.15, 1728 735.9Q1739.54 651.44, 1824 662.98Q1860.8 603.78, 1920 640.57Q1986.91 611.49, 2016 678.4z" fill="rgba(206, 239, 193, 1)"></path><path d="M2016 1080L0 1080 L0 1137.2Q-49.11 992.1, 96 942.99Q150.25 837.24, 256 891.49Q320.69 860.18, 352 924.87Q446.75 859.62, 512 954.37Q656.33 938.7, 672 1083.04Q713.32 1028.36, 768 1069.67Q807.3 948.97, 928 988.26Q967.47 867.73, 1088 907.2Q1162.99 822.19, 1248 897.18Q1339.9 893.08, 1344 984.98Q1495.18 976.16, 1504 1127.34Q1574.38 1037.72, 1664 1108.1Q1643.38 991.48, 1760 970.86Q1763.87 878.73, 1856 882.6Q1941.33 807.92, 2016 893.25z" fill="rgba(255, 255, 216, 1)"></path></g><defs><mask id="SvgjsMask1108"><rect width="1920" height="1080" fill="#ffffff"></rect></mask></defs></svg>