<svg xmlns="http://www.w3.org/2000/svg" version="1.1" xmlns:xlink="http://www.w3.org/1999/xlink" xmlns:svgjs="http://svgjs.com/svgjs" width="1440" height="208" preserveAspectRatio="none" viewBox="0 0 1440 208"><g mask="url(&quot;#SvgjsMask1006&quot;)" fill="none"><rect width="1440" height="208" x="0" y="0" fill="rgba(157, 148, 255, 1)"></rect><path d="M1488 208L0 208 L0 166.55Q39.84 134.39, 72 174.23Q113.57 143.8, 144 185.37Q196.98 118.35, 264 171.33Q300.61 135.94, 336 172.54Q401.86 118.39, 456 184.25Q510.31 118.57, 576 172.88Q639.16 116.04, 696 179.2Q730.22 141.42, 768 175.64Q829.58 117.22, 888 178.8Q947.67 118.48, 1008 178.15Q1062.87 113.02, 1128 167.89Q1189.36 109.25, 1248 170.6Q1314.59 117.19, 1368 183.77Q1420.13 115.9, 1488 168.03z" fill="rgba(83, 172, 154, 1)"></path><path d="M1488 208L0 208 L0 180.66Q63.63 124.28, 120 187.91Q185.28 133.19, 240 198.48Q300.08 138.56, 360 198.64Q387.3 153.94, 432 181.24Q473.5 150.74, 504 192.24Q534.96 151.2, 576 182.17Q637.39 123.56, 696 184.96Q739.04 156, 768 199.05Q796.83 155.88, 840 184.72Q882 154.72, 912 196.72Q944.38 157.11, 984 189.49Q1047.41 132.9, 1104 196.31Q1163.49 135.81, 1224 195.3Q1254.84 154.14, 1296 184.98Q1355.68 124.66, 1416 184.34Q1459.33 155.67, 1488 198.99z" fill="rgba(206, 239, 193, 1)"></path><path d="M1464 208L0 208 L0 209.4Q60.06 149.47, 120 209.53Q150.67 168.2, 192 198.87Q232.7 167.57, 264 208.28Q324.82 149.1, 384 209.92Q412.6 166.51, 456 195.11Q500.2 167.31, 528 211.52Q561.15 172.68, 600 205.83Q630.7 164.53, 672 195.23Q708.13 159.37, 744 195.5Q810.45 141.95, 864 208.41Q923.5 147.91, 984 207.4Q1013.65 165.06, 1056 194.71Q1099.95 166.66, 1128 210.61Q1161.74 172.35, 1200 206.09Q1254.97 141.06, 1320 196.03Q1355.47 159.5, 1392 194.97Q1433.84 164.81, 1464 206.64z" fill="rgba(255, 255, 216, 1)"></path></g><defs><mask id="SvgjsMask1006"><rect width="1440" height="208" fill="#ffffff"></rect></mask></defs></svg>