<svg xmlns="http://www.w3.org/2000/svg" version="1.1" xmlns:xlink="http://www.w3.org/1999/xlink" xmlns:svgjs="http://svgjs.com/svgjs" width="1440" height="850" preserveAspectRatio="none" viewBox="0 0 1440 850"><g mask="url(&quot;#SvgjsMask1387&quot;)" fill="none"><rect width="1440" height="850" x="0" y="0" fill="rgba(157, 148, 255, 1)"></rect><path d="M1512 850L0 850 L0 280.47Q81.48 289.96, 72 371.44Q145.81 325.25, 192 399.07Q219.75 306.82, 312 334.57Q360.35 310.92, 384 359.28Q389.45 292.73, 456 298.17Q475.64 245.81, 528 265.46Q571.84 237.29, 600 281.13Q683.78 244.91, 720 328.7Q738.75 275.44, 792 294.19Q824.47 206.66, 912 239.13Q956.47 211.6, 984 256.07Q1067.48 219.55, 1104 303.03Q1207.58 334.61, 1176 438.19Q1130 320.19, 1248 274.19Q1312 218.19, 1368 282.19Q1424.78 266.97, 1440 323.75Q1467.25 279, 1512 306.26z" fill="rgba(255, 255, 216, 1)"></path><path d="M1488 850L0 850 L0 466.86Q2.67 397.53, 72 400.21Q215.95 424.16, 192 568.11Q155.04 459.15, 264 422.19Q309.13 347.32, 384 392.45Q482.06 370.5, 504 468.56Q588.76 433.32, 624 518.08Q629.54 403.63, 744 409.17Q793.16 338.33, 864 387.48Q944.66 348.14, 984 428.81Q1078.18 402.99, 1104 497.17Q1165.84 487.01, 1176 548.85Q1225.82 478.66, 1296 528.48Q1319.83 480.31, 1368 504.14Q1460.61 476.75, 1488 569.35z" fill="rgba(206, 239, 193, 1)"></path><path d="M1512 850L0 850 L0 642.98Q-8.44 562.54, 72 554.1Q102.34 512.44, 144 542.79Q225.74 504.53, 264 586.27Q338.98 589.25, 336 664.23Q388.56 644.79, 408 697.35Q484.38 653.74, 528 730.12Q531.46 661.58, 600 665.03Q635.55 580.58, 720 616.13Q730.86 554.99, 792 565.85Q815.81 517.66, 864 541.48Q918.15 523.63, 936 577.79Q1019.09 588.88, 1008 671.96Q1074.88 618.84, 1128 685.71Q1156.96 594.67, 1248 623.64Q1260.86 564.5, 1320 577.36Q1367.02 504.38, 1440 551.4Q1483.7 523.1, 1512 566.79z" fill="rgba(83, 172, 154, 1)"></path><path d="M1488 850L0 850 L0 876.44Q-16.43 788.01, 72 771.58Q101.57 681.15, 192 710.72Q246.61 645.33, 312 699.93Q370.97 686.89, 384 745.86Q457.04 698.9, 504 771.94Q582.87 730.81, 624 809.68Q731.52 797.2, 744 904.72Q769.75 858.48, 816 884.23Q792.72 788.95, 888 765.68Q897.96 703.64, 960 713.6Q1014.55 648.15, 1080 702.7Q1128.79 679.5, 1152 728.29Q1205.89 662.18, 1272 716.07Q1300.84 672.91, 1344 701.75Q1395.23 680.98, 1416 732.21Q1525.48 769.69, 1488 879.18z" fill="rgba(3, 123, 121, 1)"></path></g><defs><mask id="SvgjsMask1387"><rect width="1440" height="850" fill="#ffffff"></rect></mask></defs></svg>